<svg xmlns="http://www.w3.org/2000/svg" id="Logo" x="0" y="0" version="1.1" viewBox="0 0 255.6 56.8" xml:space="preserve"><defs/><style>.st0{fill:#fff}.st1{fill:#231b3b}</style><path d="M63.9 31.6l-2.6 10.5H59l6.7-27.4h9.2c4.7 0 6.4 1.9 6.2 4.8 0 .5-.2 1-.3 1.6l-1 4.2c-1 3.9-2.8 6.3-9 6.3h-6.9zm14.7-10.7c.1-.4.2-.9.2-1.2.2-2.2-1.2-3-4.3-3h-6.9l-3.1 12.7h6.9c3.8 0 5.4-1.2 6.1-4.2l1.1-4.3zM87.9 14.7h2.3L83.9 40h12.3l-.5 2.1H81.1l6.8-27.4zM118.2 34.9h-12.3l-4.3 7.2h-2.4l16-27.4h3.5l2.7 27.4h-2.5l-.7-7.2zm-11.1-2.1H118L116.6 16l-9.5 16.8zM135 42.1h-2.3l2.1-8.5-4.6-18.9h2.3l4 16.6 11.9-16.6h2.7l-14 19.2-2.1 8.2zM155 14.7h15.4l-.5 2.1h-13l-2.5 10.3h12.1l-.5 2.1h-12.1L151.1 40h13l-.5 2.1h-15.4l6.8-27.4zM182.8 31.5h-7.9l-2.6 10.6h-2.4l6.7-27.4h9.5c4.8 0 6.5 1.9 6.3 4.9 0 .5-.1.9-.2 1.5l-1.1 4.4c-.8 3.2-2.2 5-5.9 5.7l4.7 10.8h-2.6l-4.5-10.5zm7.1-10.6c.1-.4.2-.8.2-1.2.2-2.3-1.3-3-4.3-3h-7.4l-3.1 12.6h7.4c3.6 0 5.4-1.1 6.1-4.1l1.1-4.3zM194.4 42.1l6.8-27.4h10c5.8 0 7.7 3 7.5 6.5 0 .6-.1 1.1-.3 1.7l-2.9 11.9c-1 4.2-3.2 7.2-10.4 7.2l-10.7.1zm18.8-18.9c.1-.5.2-.9.2-1.2.1-1.8-.8-2.8-3.7-2.8h-4.6l-4.5 18.4h4.8c3.6 0 4.6-1.4 5.3-4.2l2.5-10.2zM218.8 42.1l6.7-27.4h10.6c4.6 0 6.3 1.6 6.1 4.4 0 .4-.1.8-.2 1.3l-.7 3c-.6 2.3-1.6 3.6-4.4 4.5 2.1.7 3.3 2 3.1 4.2 0 .3 0 .6-.2 1.1l-.7 2.8c-.9 3.7-3 6.1-9 6.1h-11.3zm16.1-9.1c.1-.2.1-.5.1-.6.1-1.3-.7-2.1-2.5-2.1h-5.6l-2 7.7h5.3c2.5 0 3.6-.6 4.1-2.7l.6-2.3zm2-11.9c.1-.2.1-.5.1-.7.1-1.1-.6-1.6-2.2-1.6h-5.1l-1.8 7.4h4.7c2.2 0 3.4-.9 3.8-2.6l.5-2.5z" class="st0"/><g><path d="M40.1 36.9c-.8-.4-2.9-1.7-3.5-1.9h-.2c-.6 0-1.7.1-4.1.8-2.9.8-3.8 1.3-4.1 1.5-.1.2-.4.6-1.1 1.6 1.1.1 2.3.1 3.5.1 4 0 7.9-.4 11.2-1.2-.5-.3-1.1-.6-1.7-.9zM13.4 28.5c-.6-.3-1.1-.6-1.6-.9v6.7c.3.3.9.8 1.8 1.4-.2-2.6-.3-5-.2-7.2z" class="st1"/><path d="M30.6 42.2c-1.9 0-3.7-.1-5.4-.3-1.5 2.2-3 3.5-4.7 3.9l-.3.1-.3.1h-.4c-.4 0-.8-.1-1.3-.3l-.3-.1-.2-.1-.1-.1c-.3-.2-.9-.5-1.4-1-.6-.7-1-1.4-1.4-2.5v-.2c-.2-.7-.4-1.5-.6-2.3-.9-.4-1.6-.7-2.3-1.2v6.3c.2.4 1.6 1.8 5.3 2.9 3.7 1.2 8.5 1.9 13.6 1.9 5 0 9.8-.7 13.6-1.9 3.7-1.2 5.1-2.5 5.3-2.9v-6.3c-4.1 2.4-11.1 4-19.1 4z" class="st1"/><g><path d="M20.9 27.4h-.2.2zM47.8 24.9c.9-.5 1.4-1 1.7-1.3V23.3 17c-1.4.8-3.1 1.6-5.1 2.1 1.2 1.7 2.3 3.7 3.4 5.8zM16.1 18.8c-1.7-.6-3.2-1.2-4.4-1.9V23.7c.3.3.9.8 1.8 1.4.3-1.7.8-4.5 2.6-6.3z" class="st1"/></g></g><g><path d="M11.8 13.6c.7.6 2 1.4 4.1 2.2 1.3.5 2.7.9 4.3 1.2h.6c.7 0 1.4.1 2.2.2.3.1.7.1 1.1.1.9 0 2-.2 3.2-.5 1.6-.4 3-1.1 4-1.8.1-.1.3-.2.4-.3h-1.3c-3.7 0-7.2-.5-9.8-1.5-1.1-.4-1.7-.8-2.1-1.1.3-.3 1.2-.9 2.9-1.4 2.4-.8 5.6-1.2 9-1.2 3.3 0 6.5.4 9 1.2 1.8.6 2.6 1.1 2.9 1.4-.4.3-1.1.7-2.1 1.1-.3.1-.6.2-.8.3 1.2.6 2.4 1.7 3.5 3.1 1-.2 1.9-.5 2.7-.8 2.1-.8 3.4-1.6 4.1-2.2V12.7c-.3-.5-1.7-1.8-5.3-2.9-3.7-1.2-8.5-1.9-13.6-1.9s-9.8.7-13.6 1.9c-3.6 1.2-5 2.5-5.3 2.9v.4c-.1.1-.1.3-.1.5z" class="st1"/></g><path d="M47.3 29.3c-1.6-3.9-3.5-7.3-5.6-10.2-2-3-4-4.3-5.9-4-.9.1-1.9.7-3.2 1.6-1.2.9-2.9 1.7-4.8 2.2-2 .5-3.6.7-5.2.5-1.5-.3-2.8-.3-3.7.1-1.7.7-2.8 2.7-3.1 6.4-.3 3.6-.2 7.5.3 11.6.2 1.4.4 2.5.7 3.4.4.8.6 1.4 1 1.8.4.4.7.5 1 .7.4.1.6.2.8.2l.3-.1c1.4-.4 2.7-1.8 4.1-4.1 1.5-2.4 2.4-3.8 2.7-4 .8-.6 2.4-1.2 4.9-1.9s4.2-.9 5.2-.8c.5 0 1.9.8 4.3 2.2 2.5 1.3 4.3 1.9 5.7 1.5.1 0 .2 0 .3-.1s.3-.2.7-.5c.3-.3.5-.7.5-1.2.1-.5 0-1.2-.1-2.1 0-.8-.3-1.9-.9-3.2zm-23.8-.2l-2 .5-.6-2.3-2.3.7-.5-2 2.3-.6-.7-2.4 2-.5.6 2.3 2.3-.6.5 2-2.2.6.6 2.3zm3.7 4.4c-1.2.3-2.4-.4-2.7-1.6-.3-1.2.4-2.4 1.6-2.7 1.2-.3 2.4.4 2.7 1.6.4 1.1-.4 2.3-1.6 2.7zm6.4-11.6c.6-.2 1.3.2 1.5.8.2.6-.2 1.3-.8 1.5s-1.3-.2-1.5-.8c-.3-.7.1-1.4.8-1.5zm1.4 9.5c-1.2.3-2.4-.4-2.7-1.6-.3-1.2.4-2.4 1.6-2.7 1.2-.3 2.4.4 2.7 1.6.4 1.1-.4 2.4-1.6 2.7zm2.6-5.2c-.6.2-1.3-.2-1.5-.8-.2-.6.2-1.3.8-1.5s1.3.2 1.5.8c.3.7-.1 1.4-.8 1.5zm-1.4-5.4c-.6.2-1.3-.2-1.5-.8-.2-.6.2-1.3.8-1.5s1.3.2 1.5.8c.2.6-.2 1.3-.8 1.5zm3.5 1.9c-.6.2-1.3-.2-1.5-.8-.2-.6.2-1.3.8-1.5s1.3.2 1.5.8c.2.7-.2 1.4-.8 1.5z" class="st0"/></svg>