<svg version="1.1" id="Logo" xmlns="http://www.w3.org/2000/svg" x="0" y="0" viewBox="0 0 307.8 32" xml:space="preserve"><style>.st1{fill:#fff}</style><path fill="#0ea7e7" d="M151.7 8l13.9-8 13.9 8v16l-13.9 8-13.9-8z"/><path class="st1" d="M189.4 10.4v13.7h-2V8h2.9l7 13.8V8h2v16.1h-2.9l-7-13.7zM214.1 19.5c0 2.7-1.7 4.8-5.8 4.8s-5.8-2.2-5.8-4.8v-6.8c0-2.7 1.7-4.8 5.8-4.8s5.8 2.2 5.8 4.8v6.8zm-9.6-.1c0 2 1.2 3.1 3.7 3.1s3.7-1.1 3.7-3.1v-6.7c0-2-1.2-3.1-3.7-3.1s-3.7 1.1-3.7 3.1v6.7zM222.9 8c3.9 0 5.2 2.1 5.2 4.6v6.9c0 2.6-1.2 4.6-5.2 4.6h-5.6V8h5.6zm-3.6 14.2h3.5c2.4 0 3.2-1 3.2-2.9v-6.6c0-1.9-.7-2.9-3.2-2.9h-3.5v12.4zM231.1 8h9.5v1.9h-7.4V15h6.9v1.9h-6.9v5.5h7.4v1.9h-9.5V8zM245.3 19.5c0 2.2.9 2.9 3.5 2.9 1 0 2.5-.1 3.7-.3l.2 1.8c-1.1.3-2.8.4-4 .4-3.9 0-5.5-1.7-5.5-4.7v-7c0-3 1.6-4.7 5.5-4.7 1.2 0 2.9.2 4 .4l-.2 1.8c-1.2-.2-2.8-.3-3.7-.3-2.6 0-3.5.7-3.5 2.9v6.8zM261.5 18.3h-3.9v5.8h-2.1V8h6.1c3.5 0 4.7 1.5 4.7 4v2.3c0 1.9-.7 3.2-2.6 3.8l4.2 6.1h-2.4l-4-5.9zm0-8.5h-4v6.6h4c2 0 2.7-.6 2.7-2.1V12c0-1.6-.7-2.2-2.7-2.2zM282.4 24.1h-2.1l-1.3-3.9h-6.8l-1.3 3.9h-2.1L274.2 8h2.8l5.4 16.1zm-6.8-14.6l-2.9 8.9h5.8l-2.9-8.9zM284.6 24.1V8h9.6v1.9h-7.5v5.4h7v1.9h-7v7l-2.1-.1zM300.8 9.8H296V8h11.7v1.9h-4.8v14.3h-2.1V9.8zM172.4 8.3v3.8l3.4 1.9-2.9 1.7-3.3-2V9.9z"/><path class="st1" d="M172.9 11.8V8.2L176 10v3.6zM158.8 8.3v3.8l-3.4 1.9 2.8 1.7 3.4-2V9.9z"/><path class="st1" d="M158.3 11.8V8.2l-3.1 1.8v3.6zM165.6 23.9l3.3 1.9v-3.2l-3.3-2-3.4 1.9v3.3z"/><path class="st1" d="M165.6 24.4l-3.2 1.8 3.2 1.8 3.1-1.8zM165.8 15.9l10.2 5.8v-3.5l-7.1-4.1V5.9l-3.1-1.8zM165.3 15.9V4.2l-3.1 1.7v8.2l-7 4.1v3.5zM165.6 16.3l-10.2 5.9 3.1 1.8 7.1-4.1 7.1 4.1 3.1-1.8zM9.6 12.7c0 1.5-.5 2.7-1.6 3.6-1.1.8-2.5 1.2-4.5 1.2H1.1v6.6H0v-16h3.9c3.8 0 5.7 1.5 5.7 4.6zm-8.5 3.8h2.2c1.8 0 3.1-.3 3.9-.9s1.2-1.6 1.2-2.9c0-1.2-.4-2.1-1.1-2.7-.8-.6-1.9-.9-3.5-.9H1.1v7.4zM27.7 16.1c0 2.5-.6 4.6-1.9 6-1.3 1.5-3 2.2-5.3 2.2-2.2 0-4-.7-5.2-2.2-1.3-1.5-1.9-3.5-1.9-6.1 0-2.5.6-4.6 1.9-6 1.3-1.5 3-2.2 5.3-2.2 2.2 0 4 .7 5.2 2.2 1.3 1.5 1.9 3.5 1.9 6.1zm-13.1 0c0 2.3.5 4.1 1.5 5.3 1 1.3 2.5 1.9 4.4 1.9s3.4-.6 4.4-1.9c1-1.2 1.5-3 1.5-5.3s-.5-4.1-1.5-5.3S22.4 9 20.5 9s-3.4.6-4.4 1.9c-1 1.1-1.5 2.9-1.5 5.2zM45.3 24.1h-.9l-3.5-12.4c-.3-1-.5-1.8-.7-2.5-.1.6-.3 1.4-.5 2.2s-1.4 5-3.5 12.7h-.9l-4.4-16H32l2.8 10.3.3 1.2c.1.4.2.7.3 1s.1.6.2.9c.1.3.1.6.2.9.2-1 .5-2.5 1.1-4.5l2.7-9.7h1.2L44 19.3c.4 1.3.6 2.3.8 3.1.1-.5.2-1.1.4-1.7.1-.6 1.3-4.8 3.4-12.6h1.1l-4.4 16zM62.4 24.1h-8.8v-16h8.8v1h-7.6v6.1H62v1h-7.2v6.9h7.6v1zM68.3 17.1v7h-1.1v-16H71c2 0 3.5.4 4.4 1.1.9.7 1.4 1.8 1.4 3.3 0 1.1-.3 2-.8 2.7-.6.7-1.4 1.3-2.6 1.6l4.4 7.3h-1.3l-4.1-7h-4.1zm0-.9h3.1c1.4 0 2.4-.3 3.1-.9.7-.6 1.1-1.5 1.1-2.7s-.4-2.1-1.1-2.7-1.9-.8-3.6-.8h-2.7l.1 7.1zM90.4 24.1h-8.8v-16h8.8v1h-7.6v6.1H90v1h-7.2v6.9h7.6v1zM107.3 16c0 2.7-.7 4.7-2.1 6.1s-3.5 2.1-6.2 2.1h-3.8v-16h4.3c2.6 0 4.5.7 5.8 2 1.3 1.2 2 3.2 2 5.8zm-1.2 0c0-2.3-.6-4-1.7-5.2-1.2-1.2-2.9-1.7-5.1-1.7h-2.9v14h2.7c4.6 0 7-2.3 7-7.1zM119.1 8.1h4.4c2 0 3.4.3 4.4 1 .9.7 1.4 1.7 1.4 3 0 .9-.3 1.7-.8 2.3-.6.6-1.4 1-2.5 1.2v.1c1.3.2 2.2.6 2.8 1.2s.9 1.5.9 2.6c0 1.5-.5 2.6-1.5 3.4s-2.4 1.2-4.2 1.2h-4.9v-16zm1.1 7.1h3.5c1.5 0 2.6-.2 3.3-.8.7-.5 1-1.3 1-2.4s-.4-1.8-1.2-2.3c-.8-.5-1.9-.7-3.4-.7h-3.2v6.2zm0 1v6.9h3.8c3 0 4.4-1.2 4.4-3.6 0-2.2-1.6-3.3-4.7-3.3h-3.5zM137.9 16.9l4.7-8.8h1.2l-5.3 9.8v6.2h-1.2V18L132 8.1h1.3l4.6 8.8z"/></svg>